<?xml version="1.0" standalone="no"?>
<!DOCTYPE svg PUBLIC "-//W3C//DTD SVG 20010904//EN"
 "http://www.w3.org/TR/2001/REC-SVG-20010904/DTD/svg10.dtd">
<svg version="1.0" xmlns="http://www.w3.org/2000/svg"
 width="16.000000pt" height="16.000000pt" viewBox="0 0 16.000000 16.000000"
 preserveAspectRatio="xMidYMid meet">
<metadata>
Created by potrace 1.11, written by Peter Selinger 2001-2013
</metadata>
<g transform="translate(0.000000,16.000000) scale(0.013333,-0.013333)"
fill="#000000" stroke="none">
<path d="M272 1003 c2 -11 15 -18 38 -21 84 -9 163 -85 176 -170 7 -48 19 -61
32 -35 33 64 -62 207 -155 232 -59 17 -95 14 -91 -6z"/>
<path d="M283 953 c-7 -3 -13 -11 -13 -19 0 -8 6 -15 13 -16 51 -6 74 -17 101
-49 14 -16 28 -45 32 -64 5 -26 11 -35 26 -35 17 0 18 5 13 37 -7 44 -37 96
-68 116 -29 19 -88 35 -104 30z"/>
<path d="M273 862 c-29 -4 -63 -48 -63 -79 0 -14 13 -38 30 -55 47 -47 41 -54
-56 -55 -47 -1 -88 -4 -91 -7 -11 -11 -7 -448 5 -454 5 -4 56 -7 111 -6 76 1
101 -2 101 -12 0 -21 50 -54 82 -54 27 0 78 37 78 58 0 5 95 9 210 9 117 0
210 -4 210 -9 0 -5 12 -20 26 -33 39 -36 79 -33 118 8 25 27 40 34 75 35 62 3
71 14 71 86 0 116 -43 237 -110 310 -48 52 -83 66 -171 69 -52 2 -64 5 -64 19
0 26 -9 30 -75 30 -59 1 -74 -4 -76 -23 -1 -5 -2 -13 -3 -18 -1 -11 -369 -12
-376 -1 -3 4 15 29 40 55 l45 48 -30 37 c-31 39 -50 48 -87 42z m37 -59 c-42
-12 -43 -13 -30 -29 7 -8 19 -13 27 -10 7 3 13 2 13 -3 0 -13 -35 -19 -54 -9
-9 5 -16 20 -16 33 0 31 27 47 55 32 16 -8 17 -11 5 -14z m460 -125 c0 -4 -12
-8 -27 -8 -19 0 -24 3 -15 8 17 11 42 11 42 0z m233 -60 c63 -35 56 -52 -20
-49 -102 4 -104 2 -102 -87 1 -42 5 -81 9 -87 5 -6 59 -9 129 -9 l120 2 6 -42
c4 -23 5 -55 3 -72 -3 -27 -6 -29 -50 -32 -36 -2 -48 0 -48 11 0 21 -32 46
-68 53 -27 6 -37 1 -68 -30 -30 -30 -43 -36 -80 -36 l-44 0 -2 163 -3 162 -80
0 -80 0 -3 -162 -2 -163 -75 0 c-66 0 -74 2 -80 21 -4 11 -22 27 -41 36 -31
15 -37 15 -68 0 -19 -9 -37 -25 -41 -36 -6 -19 -14 -21 -101 -21 l-94 0 0 199
c0 199 0 200 23 203 12 2 201 2 420 1 395 -2 399 -3 440 -25z m-245 -231 l3
-148 -53 3 -53 3 -1 140 c-1 77 3 143 8 146 5 3 28 5 51 5 l42 -1 3 -148z
m342 112 c42 -82 45 -79 -77 -79 l-108 0 1 53 c1 28 2 54 3 57 0 3 38 5 82 5
l82 -1 17 -35z m-672 -242 c30 -23 2 -87 -38 -87 -47 0 -67 67 -29 94 21 14
42 12 67 -7z m590 -36 c-2 -29 -8 -38 -31 -45 -23 -8 -31 -6 -49 11 -42 42 5
105 60 80 19 -9 22 -17 20 -46z"/>
<path d="M163 564 c-14 -6 -19 -153 -5 -155 20 -4 128 -5 138 -2 7 3 11 33 10
81 l-1 77 -65 2 c-36 1 -71 -1 -77 -3z m106 -45 c4 -8 7 -27 7 -44 -1 -28 -3
-30 -48 -33 l-47 -3 3 48 c2 26 4 48 5 49 9 8 75 -6 80 -17z"/>
<path d="M372 550 c-8 -21 -7 -112 1 -134 4 -9 126 -14 195 -7 10 1 12 21 10
79 l-3 77 -98 3 c-91 3 -98 1 -105 -18z m169 -19 c3 -1 6 -21 6 -46 l0 -45
-73 0 -74 0 0 48 0 48 68 -2 c37 -1 70 -2 73 -3z"/>
<path d="M370 250 c-6 -4 -10 -18 -8 -31 2 -18 9 -24 28 -24 20 0 26 6 28 26
3 28 -24 44 -48 29z"/>
<path d="M957 253 c-25 -7 -19 -56 7 -62 27 -5 48 26 35 50 -10 20 -11 20 -42
12z"/>
</g>
</svg>
